<svg viewBox="0 0 900 600" width="900" height="600" xmlns="http://www.w3.org/2000/svg" xmlns:xlink="http://www.w3.org/1999/xlink" version="1.1"><path d="M0 49L82 49L82 103L164 103L164 91L245 91L245 49L327 49L327 121L409 121L409 91L491 91L491 121L573 121L573 49L655 49L655 127L736 127L736 43L818 43L818 133L900 133L900 109L900 0L900 0L818 0L818 0L736 0L736 0L655 0L655 0L573 0L573 0L491 0L491 0L409 0L409 0L327 0L327 0L245 0L245 0L164 0L164 0L82 0L82 0L0 0Z" fill="#fa7268"></path><path d="M0 187L82 187L82 235L164 235L164 157L245 157L245 217L327 217L327 223L409 223L409 217L491 217L491 235L573 235L573 151L655 151L655 181L736 181L736 115L818 115L818 271L900 271L900 217L900 107L900 131L818 131L818 41L736 41L736 125L655 125L655 47L573 47L573 119L491 119L491 89L409 89L409 119L327 119L327 47L245 47L245 89L164 89L164 101L82 101L82 47L0 47Z" fill="#ea5e66"></path><path d="M0 391L82 391L82 481L164 481L164 331L245 331L245 421L327 421L327 439L409 439L409 307L491 307L491 337L573 337L573 349L655 349L655 319L736 319L736 403L818 403L818 457L900 457L900 397L900 215L900 269L818 269L818 113L736 113L736 179L655 179L655 149L573 149L573 233L491 233L491 215L409 215L409 221L327 221L327 215L245 215L245 155L164 155L164 233L82 233L82 185L0 185Z" fill="#d84a64"></path><path d="M0 469L82 469L82 523L164 523L164 385L245 385L245 487L327 487L327 499L409 499L409 373L491 373L491 421L573 421L573 451L655 451L655 385L736 385L736 487L818 487L818 499L900 499L900 481L900 395L900 455L818 455L818 401L736 401L736 317L655 317L655 347L573 347L573 335L491 335L491 305L409 305L409 437L327 437L327 419L245 419L245 329L164 329L164 479L82 479L82 389L0 389Z" fill="#c53762"></path><path d="M0 601L82 601L82 601L164 601L164 601L245 601L245 601L327 601L327 601L409 601L409 601L491 601L491 601L573 601L573 601L655 601L655 601L736 601L736 601L818 601L818 601L900 601L900 601L900 479L900 497L818 497L818 485L736 485L736 383L655 383L655 449L573 449L573 419L491 419L491 371L409 371L409 497L327 497L327 485L245 485L245 383L164 383L164 521L82 521L82 467L0 467Z" fill="#b0235f"></path></svg>